<svg width="32" height="32" viewBox="0 0 32 32" xmlns="http://www.w3.org/2000/svg">
  <defs>
    <linearGradient id="grad1" x1="0%" y1="0%" x2="100%" y2="100%">
      <stop offset="0%" style="stop-color:#4F46E5;stop-opacity:1" />
      <stop offset="100%" style="stop-color:#7C3AED;stop-opacity:1" />
    </linearGradient>
    <linearGradient id="grad2" x1="0%" y1="0%" x2="100%" y2="100%">
      <stop offset="0%" style="stop-color:#10B981;stop-opacity:1" />
      <stop offset="100%" style="stop-color:#059669;stop-opacity:1" />
    </linearGradient>
  </defs>
  
  <!-- Background Circle -->
  <circle cx="16" cy="16" r="15" fill="#ffffff" stroke="#e5e7eb" stroke-width="1"/>
  
  <!-- Book Base -->
  <rect x="6" y="18" width="20" height="10" rx="1" fill="url(#grad2)"/>
  <rect x="7" y="19" width="18" height="8" rx="0.5" fill="#ffffff" opacity="0.2"/>
  
  <!-- Book Pages -->
  <rect x="8" y="20" width="16" height="1" fill="#ffffff" opacity="0.6"/>
  <rect x="8" y="22" width="14" height="1" fill="#ffffff" opacity="0.6"/>
  <rect x="8" y="24" width="12" height="1" fill="#ffffff" opacity="0.6"/>
  
  <!-- Graduation Cap -->
  <path d="M16 6 L26 12 L16 18 L6 12 Z" fill="url(#grad1)"/>
  
  <!-- Cap Shadow -->
  <path d="M16 18 L26 12 L26 13 L16 19 Z" fill="#3730A3" opacity="0.3"/>
  
  <!-- Tassel -->
  <circle cx="24" cy="12" r="1" fill="#F59E0B"/>
  <line x1="24" y1="13" x2="24" y2="16" stroke="#F59E0B" stroke-width="1"/>
  <circle cx="24" cy="16" r="0.8" fill="#F59E0B"/>
  
  <!-- Cap Top -->
  <ellipse cx="16" cy="12" rx="10" ry="2" fill="url(#grad1)"/>
  <ellipse cx="16" cy="11.5" rx="10" ry="2" fill="#ffffff" opacity="0.2"/>
  
  <!-- Highlight -->
  <ellipse cx="13" cy="9" rx="2" ry="1" fill="#ffffff" opacity="0.4"/>
</svg>
